<svg width="726" height="126" viewBox="0 0 726 126" fill="none" xmlns="http://www.w3.org/2000/svg">
<g clip-path="url('#clip0_34257_4659')">
<rect width="726" height="126" fill="white"></rect>
<path d="M144.094 16.5391H151.044V110.249H144.094V16.5391Z" fill="#54585A"></path>
<path d="M497.563 103.893H437.253V66.2769H490.873V59.8509H437.253V23.0349H496.893V16.6089H430.293V110.319H497.563V103.893Z" fill="#54585A"></path>
<path d="M589.705 110.319V16.6089H583.015V98.1369L518.425 16.6089H511.875V110.319H518.555V27.0489L584.495 110.319H589.705Z" fill="#54585A"></path>
<path d="M607.531 16.6089H614.481V110.319H607.531V16.6089Z" fill="#54585A"></path>
<path d="M709.701 16.6089H701.551L669.721 57.9789L637.751 16.6089H629.461L665.301 62.5229L628.121 110.319H636.281L669.451 67.0769L702.751 110.319H711.041L673.731 62.5189L709.701 16.6089Z" fill="#54585A"></path>
<path d="M332.179 110.249L288.579 16.6089H281.899L238.299 110.249H245.519L285.099 24.1759L309.709 77.9679H266.069L263.309 84.2089H312.649L324.559 110.249H332.179Z" fill="#54585A"></path>
<path d="M414.899 97.887V61.723H376.899V68.149H408.199V95.049C399.753 101.89 389.238 105.665 378.369 105.759C353.369 105.759 338.249 87.692 338.249 63.459V63.189C338.249 40.568 354.169 21.289 376.899 21.289C391.079 21.289 399.639 26.113 406.989 32.529L411.539 27.314C402.179 19.554 392.539 15 377.299 15C349.349 15 331.029 38.161 331.029 63.465V63.735C331.029 90.1 348.549 111.92 378.109 111.92C391.653 111.829 404.71 106.853 414.879 97.907" fill="#54585A"></path>
<path d="M202.726 59.911C180.516 55.366 175.436 49.341 175.436 39.432V39.162C175.436 29.392 184.536 21.499 198.306 21.499C208.606 21.499 217.436 24.442 226.256 32.069L230.676 26.584C221.176 18.953 212.216 15.199 198.576 15.199C181.186 15.199 168.486 25.909 168.486 39.832V40.102C168.486 54.285 177.576 61.922 200.046 66.467C221.316 70.761 226.526 76.476 226.526 86.416V86.686C226.526 97.396 216.896 105.293 202.856 105.293C189.076 105.293 179.586 100.869 169.286 91.37L164.736 96.585C175.976 106.599 187.476 111.599 202.456 111.599C220.456 111.599 233.456 101.159 233.456 86.035V85.765C233.456 72.112 224.356 64.355 202.696 59.931" fill="#54585A"></path>
<path d="M721.951 106.129H720.891V104.699H721.951C722.511 104.699 722.831 104.949 722.831 105.419C722.831 105.889 722.511 106.129 721.951 106.129V106.129ZM723.691 105.339C723.691 104.439 722.981 103.969 722.021 103.969H720.021V108.309H720.851V106.809H721.761L722.761 108.309H723.761L722.601 106.669C722.895 106.596 723.155 106.424 723.337 106.181C723.52 105.939 723.613 105.642 723.601 105.339" fill="#54585A"></path>
<path d="M725.501 106.218C725.527 106.73 725.449 107.242 725.271 107.723C725.094 108.204 724.82 108.644 724.467 109.016C724.114 109.387 723.688 109.683 723.217 109.886C722.746 110.088 722.239 110.192 721.726 110.192C721.213 110.192 720.706 110.088 720.235 109.886C719.763 109.683 719.338 109.387 718.985 109.016C718.632 108.644 718.358 108.204 718.18 107.723C718.003 107.242 717.925 106.73 717.951 106.218C717.947 105.719 718.042 105.223 718.23 104.761C718.418 104.298 718.696 103.877 719.047 103.522C719.398 103.167 719.816 102.885 720.277 102.692C720.737 102.499 721.232 102.399 721.731 102.398C722.229 102.395 722.723 102.492 723.184 102.682C723.644 102.873 724.062 103.153 724.413 103.507C724.764 103.861 725.041 104.281 725.228 104.743C725.415 105.205 725.508 105.7 725.501 106.198V106.218ZM721.731 101.898C720.597 101.903 719.511 102.358 718.71 103.162C717.91 103.965 717.461 105.054 717.461 106.188V106.188C717.461 106.749 717.571 107.304 717.786 107.822C718.001 108.34 718.315 108.811 718.712 109.207C719.108 109.604 719.579 109.918 720.097 110.133C720.615 110.348 721.17 110.458 721.731 110.458C722.292 110.458 722.847 110.348 723.365 110.133C723.883 109.918 724.354 109.604 724.75 109.207C725.147 108.811 725.461 108.34 725.676 107.822C725.89 107.304 726.001 106.749 726.001 106.188V106.188C726.002 105.627 725.893 105.071 725.679 104.552C725.464 104.034 725.15 103.562 724.753 103.166C724.356 102.769 723.885 102.454 723.367 102.24C722.848 102.026 722.292 101.917 721.731 101.918" fill="#54585A"></path>
<path d="M113.148 90.9351C108.777 81.8862 101.747 74.3871 93 69.4401C86.566 65.7871 80.65 63.7001 74.9 63.0451C80.639 62.3951 86.566 60.3131 92.992 56.6601C101.76 51.6945 108.801 44.1662 113.168 35.0851L113.148 90.9351ZM61.068 63.9761C65.234 64.0461 69.744 64.3261 74.473 64.8271C80.014 65.4271 85.753 67.4391 92.024 71.0111C100.552 75.8294 107.378 83.1708 111.564 92.0261L61.068 63.9761ZM81.9 87.8001C75.546 84.3601 70.859 80.6001 67.557 76.2851C64.735 72.5921 62.245 69.0001 60.089 65.5571L110.589 93.5771C100.667 94.5334 90.6832 92.5276 81.9 87.8131V87.8001ZM60.131 123.328C66.0518 115.35 69.3131 105.712 69.453 95.7781C69.6831 89.532 68.564 83.3096 66.172 77.5351C69.63 81.9881 74.505 85.8711 80.972 89.3931C88.597 93.4987 97.123 95.6444 105.783 95.6371C107.325 95.6371 108.908 95.5571 110.397 95.4171L60.131 123.328ZM58.412 122.507V66.5181C60.596 70.2654 62.5779 74.1269 64.349 78.0861C66.588 82.9861 67.64 88.7741 67.557 95.7791C67.4265 105.424 64.2404 114.779 58.457 122.498L58.412 122.507ZM58.454 3.61307C64.2595 11.3315 67.4622 20.695 67.6 30.3521C67.683 37.3571 66.631 43.1411 64.392 48.0351C62.486 52.2181 60.492 56.0411 58.455 59.6131L58.454 3.61307ZM110.346 30.6821C100.19 29.7852 89.9928 31.8704 81.004 36.6821C74.504 40.2051 69.672 44.0821 66.224 48.5201C68.495 43.4261 69.578 37.4621 69.495 30.3071C69.3549 20.3762 66.0936 10.7413 60.173 2.76707L110.346 30.6821ZM60.131 60.5131C62.287 57.0511 64.776 53.5131 67.589 49.7851C70.889 45.4721 75.589 41.7091 81.932 38.2671C89.2704 34.3219 97.4734 32.2602 105.805 32.2671C107.398 32.2736 108.99 32.3604 110.575 32.5271L60.131 60.5131ZM111.575 34.1001C107.39 42.9528 100.568 50.2936 92.045 55.1151C85.795 58.6781 80.035 60.6991 74.494 61.2891C69.776 61.7991 65.294 62.0701 61.099 62.1401L111.575 34.1001ZM56.569 59.6131C54.385 55.8623 52.4032 51.9975 50.632 48.0351C48.393 43.1421 47.341 37.3471 47.424 30.3521C47.5561 20.6942 50.7591 11.3291 56.569 3.61307V59.6131ZM56.569 122.498C50.7595 114.778 47.5567 105.41 47.424 95.7491C47.341 88.7491 48.393 82.9601 50.632 78.0561C52.538 73.8631 54.532 70.0501 56.569 66.4781V122.498ZM4.58302 95.4081C6.11402 95.5481 7.65601 95.6281 9.19701 95.6281C17.857 95.6354 26.3831 93.4897 34.008 89.3841C40.518 85.8611 45.351 81.9791 48.808 77.5261C46.527 82.6261 45.444 88.5941 45.527 95.7691C45.6667 105.669 48.9051 115.275 54.787 123.239L4.58302 95.4081ZM54.892 65.5171C52.736 68.9591 50.247 72.5221 47.424 76.2451C44.124 80.5581 39.424 84.3211 33.081 87.7631C24.301 92.4789 14.3208 94.4881 4.40002 93.5371L54.892 65.5171ZM22.977 70.9711C29.227 67.4001 35 65.3871 40.539 64.7861C45.268 64.2861 49.747 64.0051 53.944 63.9351L3.44402 91.9551C7.62908 83.1023 14.4511 75.7615 22.974 70.9401L22.977 70.9711ZM1.87502 90.9351V35.1551C6.23932 44.2041 13.2601 51.7067 22 56.6611C28.427 60.3141 34.353 62.3951 40.092 63.0461C34.342 63.6961 28.426 65.7881 21.992 69.4411C13.256 74.3925 6.23808 81.8908 1.87502 90.9351V90.9351ZM53.954 62.1141C49.788 62.0441 45.278 61.7741 40.549 61.2631C35.018 60.6731 29.279 58.6511 22.998 55.0891C14.4801 50.2616 7.65995 42.9225 3.46902 34.0741L53.954 62.1141ZM33.123 38.3001C39.476 41.7401 44.163 45.5001 47.465 49.8161C50.277 53.4891 52.765 57.0811 54.933 60.5441L4.40602 32.4931C14.3277 31.5458 24.3074 33.5643 33.081 38.2931L33.123 38.3001ZM54.788 2.87207C48.9063 10.8322 45.6678 20.4357 45.528 30.3321C45.3012 36.5674 46.417 42.7786 48.8 48.5451C45.342 44.1021 40.467 40.2291 34.02 36.7071C25.01 31.8757 14.7828 29.7875 4.60002 30.7001L54.788 2.87207ZM114.336 31.4921C113.888 30.7766 113.264 30.1876 112.524 29.7811L60.131 0.651074C59.3424 0.219363 58.457 -0.00466075 57.558 7.35064e-05H57.485C56.6217 0.015139 55.7748 0.238105 55.016 0.650073L2.54202 29.7311C1.78438 30.1518 1.14607 30.7581 0.687016 31.4931C0.235535 32.2344 -0.00222127 33.0861 1.56398e-05 33.9541V92.1001C-0.000978003 92.9651 0.236748 93.8135 0.687016 94.5521C1.13651 95.2994 1.77629 95.9139 2.54102 96.3331L55.006 125.35C55.7647 125.771 56.6172 125.995 57.485 126H57.568C58.4611 126.001 59.3396 125.774 60.12 125.34L112.491 96.3191C113.259 95.8962 113.902 95.2785 114.355 94.5281C114.801 93.7875 115.038 92.9404 115.042 92.0761V34.0341C115.038 33.1503 114.789 32.2849 114.323 31.5341" fill="#54585A"></path>
</g>
<defs>
<clipPath id="clip0_34257_4659">
<rect width="726" height="126" fill="white"></rect>
</clipPath>
</defs>
</svg>
