<svg xmlns="http://www.w3.org/2000/svg" width="726" height="126" fill="none"><g clip-path="url('#clip0_34257_4659')"><path fill="#fff" d="M0 0h726v126H0z"/><path fill="#54585A" d="M144.094 16.54h6.95v93.709h-6.95zM497.563 103.893h-60.31V66.277h53.62V59.85h-53.62V23.035h59.64v-6.426h-66.6v93.71h67.27zM589.705 110.319v-93.71h-6.69v81.528l-64.59-81.528h-6.55v93.71h6.68v-83.27l65.94 83.27zM607.531 16.609h6.95v93.71h-6.95zM709.701 16.609h-8.15l-31.83 41.37-31.97-41.37h-8.29l35.84 45.914-37.18 47.796h8.16l33.17-43.242 33.3 43.242h8.29l-37.31-47.8zM332.179 110.249l-43.6-93.64h-6.68l-43.6 93.64h7.22l39.58-86.073 24.61 53.792h-43.64l-2.76 6.24h49.34l11.91 26.041zM414.899 97.887V61.723h-38v6.426h31.3v26.9a48.05 48.05 0 0 1-29.83 10.71c-25 0-40.12-18.067-40.12-42.3v-.27c0-22.621 15.92-41.9 38.65-41.9 14.18 0 22.74 4.824 30.09 11.24l4.55-5.215c-9.36-7.76-19-12.314-34.24-12.314-27.95 0-46.27 23.161-46.27 48.465v.27c0 26.365 17.52 48.185 47.08 48.185a56.24 56.24 0 0 0 36.77-14.013M202.726 59.911c-22.21-4.545-27.29-10.57-27.29-20.479v-.27c0-9.77 9.1-17.663 22.87-17.663 10.3 0 19.13 2.943 27.95 10.57l4.42-5.485c-9.5-7.631-18.46-11.385-32.1-11.385-17.39 0-30.09 10.71-30.09 24.633v.27c0 14.183 9.09 21.82 31.56 26.365 21.27 4.294 26.48 10.009 26.48 19.949v.27c0 10.71-9.63 18.607-23.67 18.607-13.78 0-23.27-4.424-33.57-13.923l-4.55 5.215c11.24 10.014 22.74 15.014 37.72 15.014 18 0 31-10.44 31-25.564v-.27c0-13.653-9.1-21.41-30.76-25.834M721.951 106.129h-1.06v-1.43h1.06c.56 0 .88.25.88.72s-.32.71-.88.71m1.74-.79c0-.9-.71-1.37-1.67-1.37h-2v4.34h.83v-1.5h.91l1 1.5h1l-1.16-1.64c.294-.073.554-.245.736-.488.183-.242.276-.539.264-.842"/><path fill="#54585A" d="M725.501 106.218a3.783 3.783 0 0 1-3.775 3.974 3.78 3.78 0 0 1-3.546-2.469 3.8 3.8 0 0 1-.229-1.505 3.79 3.79 0 0 1 3.78-3.82 3.76 3.76 0 0 1 2.682 1.109 3.76 3.76 0 0 1 1.088 2.691zm-3.77-4.32a4.29 4.29 0 0 0-4.27 4.29 4.26 4.26 0 0 0 1.251 3.019 4.26 4.26 0 0 0 4.653.926 4.26 4.26 0 0 0 2.311-2.311 4.3 4.3 0 0 0 .325-1.634 4.3 4.3 0 0 0-.322-1.636 4.27 4.27 0 0 0-3.948-2.634M113.148 90.935A49.36 49.36 0 0 0 93 69.44c-6.434-3.653-12.35-5.74-18.1-6.395 5.739-.65 11.666-2.732 18.092-6.385a49.4 49.4 0 0 0 20.176-21.575zm-52.08-26.959c4.166.07 8.676.35 13.405.851 5.541.6 11.28 2.612 17.551 6.184a47.4 47.4 0 0 1 19.54 21.015zM81.9 87.8c-6.354-3.44-11.041-7.2-14.343-11.515-2.822-3.693-5.312-7.285-7.468-10.728l50.5 28.02A50.43 50.43 0 0 1 81.9 87.813zm-21.769 35.528a47.35 47.35 0 0 0 9.322-27.55 43.5 43.5 0 0 0-3.281-18.243c3.458 4.453 8.333 8.336 14.8 11.858a52.24 52.24 0 0 0 24.811 6.244c1.542 0 3.125-.08 4.614-.22zm-1.719-.821V66.518a122 122 0 0 1 5.937 11.568c2.239 4.9 3.291 10.688 3.208 17.693a45.6 45.6 0 0 1-9.1 26.719zm.042-118.894a45.57 45.57 0 0 1 9.146 26.74c.083 7.004-.969 12.788-3.208 17.682a143 143 0 0 1-5.937 11.578zm51.892 27.07a52.4 52.4 0 0 0-29.342 6c-6.5 3.522-11.332 7.4-14.78 11.837 2.271-5.094 3.354-11.058 3.271-18.213a47.3 47.3 0 0 0-9.322-27.54zm-50.215 29.83c2.156-3.462 4.645-7 7.458-10.728 3.3-4.313 8-8.076 14.343-11.518a50.3 50.3 0 0 1 23.873-6q2.391.01 4.77.26zM111.575 34.1a47.44 47.44 0 0 1-19.53 21.015c-6.25 3.563-12.01 5.584-17.551 6.174-4.718.51-9.2.781-13.395.851zM56.569 59.613a122 122 0 0 1-5.937-11.578c-2.239-4.893-3.291-10.688-3.208-17.683a45.5 45.5 0 0 1 9.145-26.739zm0 62.885a45.53 45.53 0 0 1-9.145-26.749c-.083-7 .969-12.789 3.208-17.693a141 141 0 0 1 5.937-11.578zM4.583 95.408c1.531.14 3.073.22 4.614.22a52.24 52.24 0 0 0 24.811-6.244c6.51-3.523 11.343-7.405 14.8-11.858-2.281 5.1-3.364 11.068-3.281 18.243a47.36 47.36 0 0 0 9.26 27.47zm50.309-29.89c-2.156 3.441-4.645 7.004-7.468 10.727-3.3 4.313-8 8.076-14.343 11.518A50.44 50.44 0 0 1 4.4 93.537zM22.977 70.97c6.25-3.57 12.023-5.584 17.562-6.185 4.729-.5 9.208-.78 13.405-.85l-50.5 28.02a47.44 47.44 0 0 1 19.53-21.016zM1.875 90.935v-55.78A49.38 49.38 0 0 0 22 56.661c6.427 3.653 12.353 5.734 18.092 6.385-5.75.65-11.666 2.742-18.1 6.395A49.36 49.36 0 0 0 1.875 90.935m52.079-28.82c-4.166-.07-8.676-.34-13.405-.852-5.531-.59-11.27-2.612-17.551-6.174A47.55 47.55 0 0 1 3.469 34.074zM33.123 38.3c6.353 3.44 11.04 7.2 14.342 11.516 2.812 3.673 5.3 7.265 7.468 10.728L4.406 32.494a50.35 50.35 0 0 1 28.675 5.8zM54.788 2.872a47.33 47.33 0 0 0-9.26 27.46A43.54 43.54 0 0 0 48.8 48.545c-3.458-4.443-8.333-8.316-14.78-11.838A52.36 52.36 0 0 0 4.6 30.7zm59.548 28.62a4.95 4.95 0 0 0-1.812-1.71L60.131.651A5.3 5.3 0 0 0 57.558 0h-.073a5.4 5.4 0 0 0-2.469.65L2.542 29.731a5.1 5.1 0 0 0-1.855 1.762A4.7 4.7 0 0 0 0 33.954V92.1a4.7 4.7 0 0 0 .687 2.452 4.9 4.9 0 0 0 1.854 1.781l52.465 29.017a5.2 5.2 0 0 0 2.479.65h.083a5.24 5.24 0 0 0 2.552-.66l52.371-29.02a5 5 0 0 0 1.864-1.792c.446-.74.683-1.588.687-2.452V34.034a4.8 4.8 0 0 0-.719-2.5"/></g><defs><clipPath id="clip0_34257_4659"><path fill="#fff" d="M0 0h726v126H0z"/></clipPath></defs></svg>